# xmcd
#
# Track frame offsets: 
#        180
#        17990
#        36539
#        58138
#        78581
#        99470
#        115247
#        136654
#        158317
#        179717
#        198100
#        220314
#
# Disc length: 3227 seconds
#
# Revision: 3
# Processed by: cddbd v1.5PL3 Copyright (c) Steve Scherf et al.
# Submitted via: ExactAudioCopy v0.95a4
#
DISCID=a40c990c
DTITLE=chris rea - the blue cafe
DYEAR=1998
DGENRE=Blues
TTITLE0=square peg, round hole
TTITLE1=miss your kiss
TTITLE2=shadows of the big man
TTITLE3=where do we go from here?
TTITLE4=since I found you
TTITLE5=thinking of you
TTITLE6=as long as I have your love
TTITLE7=anyone quite like you
TTITLE8=sweet summer day
TTITLE9=stick by you
TTITLE10=I'm still holding on
TTITLE11=the blue cafe
EXTD=
EXTT0=
EXTT1=
EXTT2=
EXTT3=
EXTT4=
EXTT5=
EXTT6=
EXTT7=
EXTT8=
EXTT9=
EXTT10=
EXTT11=
PLAYORDER=
